<?xml version="1.0" encoding="utf-8"?>
<!-- Generator: Adobe Illustrator 21.1.0, SVG Export Plug-In . SVG Version: 6.00 Build 0)  -->
<svg version="1.1" id="Layer_1" xmlns="http://www.w3.org/2000/svg" xmlns:xlink="http://www.w3.org/1999/xlink" x="0px" y="0px"
	 viewBox="0 0 197 68" style="enable-background:new 0 0 197 68;" xml:space="preserve">
<style type="text/css">
	.st0{fill:#FFAA17;}
	.st1{fill:#FFFFFF;}
</style>
<g>
	<path class="st0" d="M14,2h40c5.5,0,10,4.5,10,10v40c0,5.5-4.5,10-10,10H14C8.5,62,4,57.5,4,52V12C4,6.5,8.5,2,14,2z"/>
</g>
<g>
	<path class="st1" d="M24.1,51V15.1h9.2c3,0,5.2,0.2,6.9,0.6c1.6,0.4,3.1,1,4.3,1.9c1.3,1,2.4,2.1,3.1,3.5c0.7,1.4,1.1,2.9,1.1,4.5
		c0,2.3-0.6,4.2-1.7,5.9c-1.1,1.7-2.8,3-5,4L53,51h-9.8l-9.6-14.1h-1.2V51H24.1z M33.8,21.7h-1.4v9.9h1.8c2.2,0,3.8-0.4,4.9-1.3
		c1.1-0.9,1.7-2.1,1.7-3.8c0-1.7-0.6-3-1.7-3.7C38.1,22.1,36.3,21.7,33.8,21.7z"/>
</g>
<g>
	<path class="st1" d="M84.1,33.7h-6.3v-18h5.9l0.1,3.2c0.7-1.3,1.6-2.2,2.5-2.8s2.2-0.9,3.6-0.9h0.5v6.7h-0.7H89c-2,0-3.3,0.2-4,0.7
		s-1,1.5-1,3.2L84.1,33.7L84.1,33.7z"/>
	<path class="st1" d="M111.6,15.6v11.3c0,1.4,0,2.6,0.1,3.6s0.1,1.8,0.2,2.5l-5.8,1.6l-0.6-1.7c-0.8,0.6-1.6,1-2.3,1.3
		c-0.8,0.3-1.5,0.4-2.4,0.4c-2.3,0-4.3-0.9-5.9-2.8c-1.6-1.9-2.4-4.2-2.4-6.9c0-2.9,0.9-5.3,2.7-7.2c1.8-1.9,4-2.8,6.7-2.8
		c0.6,0,1.3,0.1,2,0.3s1.4,0.4,2.3,0.8L111.6,15.6z M105.3,20.2c-0.4-0.2-0.7-0.4-1.1-0.5c-0.3-0.1-0.7-0.1-1-0.1
		c-1.2,0-2.2,0.5-3,1.5S99,23.3,99,24.9c0,1.4,0.4,2.6,1.1,3.5s1.6,1.4,2.6,1.4c0.4,0,0.8-0.1,1.3-0.3c0.4-0.2,0.9-0.6,1.4-1v-8.3
		H105.3z"/>
	<path class="st1" d="M113.9,33.7l8.1-13.3h-7l1.1-4.7h15.8L123.8,29h7.8l-0.7,4.8h-17V33.7z"/>
	<path class="st1" d="M132.5,33.7l8.1-13.3h-7l1.1-4.7h15.8L142.4,29h7.8l-0.7,4.8h-17V33.7z"/>
	<path class="st1" d="M171.5,15.6v11.3c0,1.4,0,2.6,0.1,3.6s0.1,1.8,0.2,2.5l-5.8,1.6l-0.6-1.7c-0.8,0.6-1.6,1-2.3,1.3
		c-0.8,0.3-1.5,0.4-2.4,0.4c-2.3,0-4.3-0.9-5.9-2.8c-1.6-1.9-2.4-4.2-2.4-6.9c0-2.9,0.9-5.3,2.7-7.2c1.8-1.9,4-2.8,6.7-2.8
		c0.6,0,1.3,0.1,2,0.3s1.4,0.4,2.3,0.8L171.5,15.6z M165.2,20.2c-0.4-0.2-0.7-0.4-1.1-0.5c-0.3-0.1-0.7-0.1-1-0.1
		c-1.2,0-2.2,0.5-3,1.5s-1.2,2.2-1.2,3.8c0,1.4,0.4,2.6,1.1,3.5c0.7,0.9,1.6,1.4,2.6,1.4c0.4,0,0.8-0.1,1.3-0.3
		c0.4-0.2,0.9-0.6,1.4-1v-8.3H165.2z"/>
	<path class="st1" d="M182.3,33.7h-6.1V5.1l6.1-0.9V23l5.5-7.4h6.6l-6.3,7.7l7.7,10.3H189l-6.6-9.6L182.3,33.7L182.3,33.7z"/>
</g>
<g>
	<path class="st0" d="M85.1,53.1h-6.2c0.1,1.4,1,2.1,2.6,2.1c1,0,2-0.2,2.8-0.7v2.1c-0.9,0.5-2,0.7-3.4,0.7c-1.5,0-2.7-0.4-3.6-1.3
		c-0.8-0.8-1.3-2-1.3-3.6s0.5-2.8,1.4-3.7s2-1.4,3.4-1.4s2.5,0.4,3.2,1.2c0.8,0.8,1.1,1.9,1.1,3.3V53.1z M82.4,51.3
		c0-1.4-0.6-2-1.7-2c-0.5,0-0.9,0.2-1.2,0.6c-0.3,0.4-0.6,0.9-0.6,1.5L82.4,51.3L82.4,51.3z"/>
	<path class="st0" d="M99.1,57h-2.9v-5.3c0-1.5-0.5-2.2-1.6-2.2c-0.5,0-0.9,0.2-1.3,0.6c-0.3,0.4-0.5,0.9-0.5,1.5V57h-2.9v-9.5h2.9
		V49l0,0c0.7-1.2,1.7-1.7,3.1-1.7c2.1,0,3.2,1.3,3.2,3.9C99.1,51.2,99.1,57,99.1,57z"/>
	<path class="st0" d="M110.2,56.9c-0.4,0.2-1.1,0.3-2,0.3c-2.1,0-3.1-1.1-3.1-3.2v-4.4h-1.5v-2.2h1.5v-2.1l2.9-0.8v2.9h2.1v2.2H108
		v3.8c0,1,0.4,1.5,1.2,1.5c0.3,0,0.6-0.1,1-0.3V56.9z"/>
	<path class="st0" d="M123.4,53.1h-6.2c0.1,1.4,1,2.1,2.6,2.1c1,0,2-0.2,2.8-0.7v2.1c-0.9,0.5-2,0.7-3.4,0.7c-1.5,0-2.7-0.4-3.6-1.3
		c-0.8-0.8-1.3-2-1.3-3.6s0.5-2.8,1.4-3.7s2-1.4,3.4-1.4s2.5,0.4,3.2,1.2s1.1,1.9,1.1,3.3V53.1z M120.7,51.3c0-1.4-0.6-2-1.7-2
		c-0.5,0-0.9,0.2-1.2,0.6c-0.3,0.4-0.6,0.9-0.6,1.5L120.7,51.3L120.7,51.3z"/>
	<path class="st0" d="M134.4,50.1c-0.4-0.2-0.8-0.3-1.2-0.3c-0.6,0-1.1,0.2-1.5,0.7s-0.5,1.1-0.5,1.9V57h-2.9v-9.5h2.9v1.8l0,0
		c0.5-1.3,1.3-1.9,2.5-1.9c0.3,0,0.6,0,0.7,0.1V50.1z"/>
	<path class="st0" d="M141.8,55.9L141.8,55.9v5.5h-2.9V47.5h2.9v1.4l0,0c0.7-1.1,1.7-1.7,3.1-1.7c1.2,0,2.2,0.4,2.9,1.3
		c0.7,0.8,1,2,1,3.4c0,1.6-0.4,2.9-1.2,3.8s-1.8,1.4-3.1,1.4C143.3,57.2,142.4,56.8,141.8,55.9z M141.8,52v0.8
		c0,0.7,0.2,1.2,0.5,1.6c0.3,0.4,0.8,0.6,1.4,0.6c0.7,0,1.2-0.3,1.6-0.8c0.4-0.5,0.6-1.2,0.6-2.2c0-1.7-0.6-2.5-1.9-2.5
		c-0.6,0-1.1,0.2-1.5,0.7C141.9,50.6,141.8,51.3,141.8,52z"/>
	<path class="st0" d="M159.9,50.1c-0.4-0.2-0.8-0.3-1.2-0.3c-0.6,0-1.1,0.2-1.5,0.7s-0.5,1.1-0.5,1.9V57h-2.9v-9.5h2.9v1.8l0,0
		c0.5-1.3,1.3-1.9,2.5-1.9c0.3,0,0.6,0,0.7,0.1V50.1z"/>
	<path class="st0" d="M165.8,46c-0.5,0-0.9-0.1-1.2-0.4s-0.5-0.7-0.5-1.1c0-0.4,0.2-0.8,0.5-1.1s0.7-0.4,1.2-0.4s0.9,0.1,1.2,0.4
		c0.3,0.3,0.5,0.6,0.5,1.1c0,0.4-0.2,0.8-0.5,1.1C166.7,45.9,166.3,46,165.8,46z M167.3,57h-2.9v-9.5h2.9V57z"/>
	<path class="st0" d="M180.3,57h-8.5v-1.2l4.8-6.1h-4.3v-2.2h8v1.4l-4.5,5.9h4.6V57H180.3z"/>
	<path class="st0" d="M193.5,53.1h-6.2c0.1,1.4,1,2.1,2.6,2.1c1,0,2-0.2,2.8-0.7v2.1c-0.9,0.5-2,0.7-3.4,0.7c-1.5,0-2.7-0.4-3.6-1.3
		c-0.8-0.8-1.3-2-1.3-3.6s0.5-2.8,1.4-3.7s2-1.4,3.4-1.4s2.5,0.4,3.2,1.2c0.8,0.8,1.1,1.9,1.1,3.3V53.1z M190.8,51.3
		c0-1.4-0.6-2-1.7-2c-0.5,0-0.9,0.2-1.2,0.6c-0.3,0.4-0.6,0.9-0.6,1.5L190.8,51.3L190.8,51.3z"/>
</g>
</svg>
