<svg width="197" height="68" viewBox="0 0 197 68" fill="none" xmlns="http://www.w3.org/2000/svg">
<g clip-path="url(#clip0_2_20)">
<path d="M14 2H54C59.5 2 64 6.5 64 12V52C64 57.5 59.5 62 54 62H14C8.5 62 4 57.5 4 52V12C4 6.5 8.5 2 14 2Z" fill="#FFAA17"/>
<path d="M90.616 15.012L82.084 31.824H90.652V36H76.864V31.896L85.36 15.12H76.864V10.8H90.616V15.012ZM111.627 36V10.8H124.551V15.12H116.559V21.132H123.687V25.308H116.559V31.824H124.695V36H111.627ZM145.843 36V10.8H156.103C157.279 11.232 158.323 11.988 159.235 13.068C160.147 14.148 160.603 15.456 160.603 16.992C160.603 19.704 159.715 21.6 157.939 22.68V22.824C160.147 24.048 161.251 25.968 161.251 28.584C161.251 31.584 159.727 34.056 156.679 36H145.843ZM150.739 21.204H154.303C155.359 20.556 155.887 19.572 155.887 18.252C155.887 16.932 155.395 15.888 154.411 15.12H150.739V21.204ZM150.739 31.824H154.447C154.879 31.512 155.263 31.02 155.599 30.348C155.959 29.676 156.139 29.004 156.139 28.332C156.139 27.66 155.995 27.048 155.707 26.496C155.419 25.944 155.059 25.536 154.627 25.272H150.739V31.824ZM192.966 36L192.21 32.004H186.522L185.766 36H180.87L185.73 10.8H193.182L197.79 36H192.966ZM189.294 15.48L187.89 23.868L187.098 28.152H191.598L190.77 23.868L189.366 15.48H189.294Z" fill="white"/>
<path d="M81.48 50.88H79.98C79.78 51.12 79.6133 51.4533 79.48 51.88C79.36 52.3067 79.3 52.72 79.3 53.12H82.16C82.1867 52.72 82.1333 52.3067 82 51.88C81.8667 51.44 81.6933 51.1067 81.48 50.88ZM84.2 56.9V59H79.12C78.1867 58.3733 77.5267 57.6 77.14 56.68C76.7667 55.7467 76.58 54.8067 76.58 53.86C76.58 51.6733 77.4067 49.98 79.06 48.78H82.3C83.1933 49.4333 83.8 50.1267 84.12 50.86C84.44 51.5933 84.6 52.3333 84.6 53.08C84.6 53.8267 84.54 54.4667 84.42 55H79.44C79.48 55.3067 79.5933 55.66 79.78 56.06C79.98 56.4467 80.1933 56.7267 80.42 56.9H84.2ZM93.982 48.78H96.102C96.6887 49.5267 97.0887 50.2733 97.302 51.02C97.5154 51.7667 97.622 52.7 97.622 53.82V59H94.962V53.62C94.962 52.3533 94.7887 51.44 94.442 50.88H92.202V59H89.542V48.78H91.622L91.982 49.5C92.2754 49.2333 92.5487 49.0467 92.802 48.94C93.0687 48.8333 93.462 48.78 93.982 48.78ZM103.156 54.54V50.88H101.776V48.78H103.156V46H105.816V48.78H107.456V50.88H105.816V55.18C105.816 55.9933 105.956 56.5667 106.236 56.9H107.456V59H104.616C103.909 58.3467 103.483 57.64 103.336 56.88C103.216 56.24 103.156 55.46 103.156 54.54ZM116.811 50.88H115.311C115.111 51.12 114.945 51.4533 114.811 51.88C114.691 52.3067 114.631 52.72 114.631 53.12H117.491C117.518 52.72 117.465 52.3067 117.331 51.88C117.198 51.44 117.025 51.1067 116.811 50.88ZM119.531 56.9V59H114.451C113.518 58.3733 112.858 57.6 112.471 56.68C112.098 55.7467 111.911 54.8067 111.911 53.86C111.911 51.6733 112.738 49.98 114.391 48.78H117.631C118.525 49.4333 119.131 50.1267 119.451 50.86C119.771 51.5933 119.931 52.3333 119.931 53.08C119.931 53.8267 119.871 54.4667 119.751 55H114.771C114.811 55.3067 114.925 55.66 115.111 56.06C115.311 56.4467 115.525 56.7267 115.751 56.9H119.531ZM124.893 59V48.78H126.793L127.293 49.86C127.827 49.14 128.5 48.78 129.313 48.78H130.093V51.46H127.553V59H124.893ZM134.84 48.78H136.98L137.28 49.5C137.574 49.2333 137.847 49.0467 138.1 48.94C138.367 48.8333 138.76 48.78 139.28 48.78H141.08C141.64 49.3267 142.08 50.0333 142.4 50.9C142.72 51.7667 142.88 52.72 142.88 53.76C142.88 55.9867 142.214 57.7333 140.88 59H139.18C138.474 59 137.914 58.8133 137.5 58.44V62H134.84V48.78ZM137.5 56.9H139.42C139.914 56.06 140.16 55.04 140.16 53.84C140.16 52.64 139.907 51.6533 139.4 50.88H137.5V56.9ZM147.933 59V48.78H149.833L150.333 49.86C150.866 49.14 151.54 48.78 152.353 48.78H153.133V51.46H150.593V59H147.933ZM157.88 59V48.78H160.52V59H157.88ZM157.88 45H160.52V47.7H157.88V45ZM166.836 48.78H171.256V50.88H168.136L170.036 53.7C170.889 54.9133 171.362 55.7467 171.456 56.2C171.509 56.4133 171.536 56.6333 171.536 56.86C171.536 57.8067 171.182 58.52 170.476 59H165.376V56.9H169.036L166.896 53.76C166.802 53.6133 166.656 53.4067 166.456 53.14C166.269 52.8733 166.122 52.66 166.016 52.5C165.909 52.3267 165.836 52.2 165.796 52.12C165.756 52.04 165.702 51.94 165.636 51.82C165.569 51.6867 165.522 51.5733 165.496 51.48C165.442 51.2267 165.416 51.02 165.416 50.86C165.416 49.8867 165.889 49.1933 166.836 48.78ZM180.853 50.88H179.353C179.153 51.12 178.986 51.4533 178.853 51.88C178.733 52.3067 178.673 52.72 178.673 53.12H181.533C181.559 52.72 181.506 52.3067 181.373 51.88C181.239 51.44 181.066 51.1067 180.853 50.88ZM183.573 56.9V59H178.493C177.559 58.3733 176.899 57.6 176.513 56.68C176.139 55.7467 175.953 54.8067 175.953 53.86C175.953 51.6733 176.779 49.98 178.433 48.78H181.673C182.566 49.4333 183.173 50.1267 183.493 50.86C183.813 51.5933 183.973 52.3333 183.973 53.08C183.973 53.8267 183.913 54.4667 183.793 55H178.813C178.853 55.3067 178.966 55.66 179.153 56.06C179.353 56.4467 179.566 56.7267 179.793 56.9H183.573ZM189.602 48.78H194.022V50.88H190.902L192.802 53.7C193.656 54.9133 194.129 55.7467 194.222 56.2C194.276 56.4133 194.302 56.6333 194.302 56.86C194.302 57.8067 193.949 58.52 193.242 59H188.142V56.9H191.802L189.662 53.76C189.569 53.6133 189.422 53.4067 189.222 53.14C189.036 52.8733 188.889 52.66 188.782 52.5C188.676 52.3267 188.602 52.2 188.562 52.12C188.522 52.04 188.469 51.94 188.402 51.82C188.336 51.6867 188.289 51.5733 188.262 51.48C188.209 51.2267 188.182 51.02 188.182 50.86C188.182 49.8867 188.656 49.1933 189.602 48.78Z" fill="#FFAA17"/>
<path d="M45.01 20.005L32.465 41.39H44.88V48.215H22V43.21L34.74 21.825H22.78V15H45.01V20.005Z" fill="white"/>
</g>
<defs>
<clipPath id="clip0_2_20">
<rect width="197" height="68" fill="white"/>
</clipPath>
</defs>
</svg>
