<svg width="197" height="68" viewBox="0 0 197 68" fill="none" xmlns="http://www.w3.org/2000/svg">
<g clip-path="url(#clip0_1_25)">
<path d="M14 2H54C59.5 2 64 6.5 64 12V52C64 57.5 59.5 62 54 62H14C8.5 62 4 57.5 4 52V12C4 6.5 8.5 2 14 2Z" fill="#FFAA17"/>
<path d="M24.1 51V15.1H33.3C36.3 15.1 38.5 15.3 40.2 15.7C41.8 16.1 43.3 16.7 44.5 17.6C45.8 18.6 46.9 19.7 47.6 21.1C48.3 22.5 48.7 24 48.7 25.6C48.7 27.9 48.1 29.8 47 31.5C45.9 33.2 44.2 34.5 42 35.5L53 51H43.2L33.6 36.9H32.4V51H24.1ZM33.8 21.7H32.4V31.6H34.2C36.4 31.6 38 31.2 39.1 30.3C40.2 29.4 40.8 28.2 40.8 26.5C40.8 24.8 40.2 23.5 39.1 22.8C38.1 22.1 36.3 21.7 33.8 21.7Z" fill="white"/>
<path d="M76.728 9.8H86.304C87.816 10.304 89.1 11.24 90.156 12.608C91.236 13.952 91.776 15.608 91.776 17.576C91.776 20.792 90.504 23.156 87.96 24.668L91.596 35H86.556L83.496 25.82H81.588V35H76.728V9.8ZM81.588 14.12V21.788H84.684C85.092 21.692 85.536 21.284 86.016 20.564C86.52 19.82 86.772 18.956 86.772 17.972C86.772 16.988 86.556 16.124 86.124 15.38C85.716 14.636 85.308 14.216 84.9 14.12H81.588ZM108.649 26.684H104.797C104.293 27.308 104.041 28.088 104.041 29.024C104.041 29.96 104.305 30.692 104.833 31.22H108.649V26.684ZM100.909 16.604H109.837C111.277 17.468 112.225 18.464 112.681 19.592C113.137 20.696 113.365 22.208 113.365 24.128V29.528C113.365 31.52 113.413 33.344 113.509 35H109.405L108.757 33.704C107.821 34.568 106.501 35 104.797 35H102.529C100.489 33.656 99.4693 31.724 99.4693 29.204C99.4693 26.66 100.513 24.656 102.601 23.192H105.985C106.921 23.192 107.797 23.48 108.613 24.056V22.256C108.613 21.32 108.205 20.696 107.389 20.384H100.909V16.604ZM124.742 16.604H132.698V20.384H127.082L130.502 25.46C132.038 27.644 132.89 29.144 133.058 29.96C133.154 30.344 133.202 30.74 133.202 31.148C133.202 32.852 132.566 34.136 131.294 35H122.114V31.22H128.702L124.85 25.568C124.682 25.304 124.418 24.932 124.058 24.452C123.722 23.972 123.458 23.588 123.266 23.3C123.074 22.988 122.942 22.76 122.87 22.616C122.798 22.472 122.702 22.292 122.582 22.076C122.462 21.836 122.378 21.632 122.33 21.464C122.234 21.008 122.186 20.636 122.186 20.348C122.186 18.596 123.038 17.348 124.742 16.604ZM150.396 16.604H153.816C154.872 17.948 155.592 19.292 155.976 20.636C156.36 21.98 156.552 23.66 156.552 25.676V35H151.764V25.316C151.764 23.036 151.452 21.392 150.828 20.384H146.796V35H142.008V9.8H146.796V17.9C147.324 17.42 147.816 17.084 148.272 16.892C148.752 16.7 149.46 16.604 150.396 16.604ZM165.995 35V16.604H170.747V35H165.995ZM165.995 9.8H170.747V14.66H165.995V9.8ZM194.247 35H190.611L189.963 33.704C189.435 34.184 188.931 34.52 188.451 34.712C187.995 34.904 187.299 35 186.363 35H183.231C182.175 33.992 181.335 32.672 180.711 31.04C180.111 29.408 179.811 27.584 179.811 25.568C179.811 23.528 180.111 21.8 180.711 20.384C181.335 18.968 182.211 17.708 183.339 16.604H186.435C187.707 16.604 188.715 16.94 189.459 17.612V9.8H194.247V35ZM189.459 20.384H186.003C185.115 21.896 184.671 23.756 184.671 25.964C184.671 28.148 185.103 29.9 185.967 31.22H189.459V20.384Z" fill="black"/>
<path d="M80.48 49.88H78.98C78.78 50.12 78.6133 50.4533 78.48 50.88C78.36 51.3067 78.3 51.72 78.3 52.12H81.16C81.1867 51.72 81.1333 51.3067 81 50.88C80.8667 50.44 80.6933 50.1067 80.48 49.88ZM83.2 55.9V58H78.12C77.1867 57.3733 76.5267 56.6 76.14 55.68C75.7667 54.7467 75.58 53.8067 75.58 52.86C75.58 50.6733 76.4067 48.98 78.06 47.78H81.3C82.1933 48.4333 82.8 49.1267 83.12 49.86C83.44 50.5933 83.6 51.3333 83.6 52.08C83.6 52.8267 83.54 53.4667 83.42 54H78.44C78.48 54.3067 78.5933 54.66 78.78 55.06C78.98 55.4467 79.1933 55.7267 79.42 55.9H83.2ZM92.982 47.78H95.102C95.6887 48.5267 96.0887 49.2733 96.302 50.02C96.5154 50.7667 96.622 51.7 96.622 52.82V58H93.962V52.62C93.962 51.3533 93.7887 50.44 93.442 49.88H91.202V58H88.542V47.78H90.622L90.982 48.5C91.2754 48.2333 91.5487 48.0467 91.802 47.94C92.0687 47.8333 92.462 47.78 92.982 47.78ZM102.156 53.54V49.88H100.776V47.78H102.156V45H104.816V47.78H106.456V49.88H104.816V54.18C104.816 54.9933 104.956 55.5667 105.236 55.9H106.456V58H103.616C102.909 57.3467 102.483 56.64 102.336 55.88C102.216 55.24 102.156 54.46 102.156 53.54ZM115.811 49.88H114.311C114.111 50.12 113.945 50.4533 113.811 50.88C113.691 51.3067 113.631 51.72 113.631 52.12H116.491C116.518 51.72 116.465 51.3067 116.331 50.88C116.198 50.44 116.025 50.1067 115.811 49.88ZM118.531 55.9V58H113.451C112.518 57.3733 111.858 56.6 111.471 55.68C111.098 54.7467 110.911 53.8067 110.911 52.86C110.911 50.6733 111.738 48.98 113.391 47.78H116.631C117.525 48.4333 118.131 49.1267 118.451 49.86C118.771 50.5933 118.931 51.3333 118.931 52.08C118.931 52.8267 118.871 53.4667 118.751 54H113.771C113.811 54.3067 113.925 54.66 114.111 55.06C114.311 55.4467 114.525 55.7267 114.751 55.9H118.531ZM123.893 58V47.78H125.793L126.293 48.86C126.827 48.14 127.5 47.78 128.313 47.78H129.093V50.46H126.553V58H123.893ZM133.84 47.78H135.98L136.28 48.5C136.574 48.2333 136.847 48.0467 137.1 47.94C137.367 47.8333 137.76 47.78 138.28 47.78H140.08C140.64 48.3267 141.08 49.0333 141.4 49.9C141.72 50.7667 141.88 51.72 141.88 52.76C141.88 54.9867 141.214 56.7333 139.88 58H138.18C137.474 58 136.914 57.8133 136.5 57.44V61H133.84V47.78ZM136.5 55.9H138.42C138.914 55.06 139.16 54.04 139.16 52.84C139.16 51.64 138.907 50.6533 138.4 49.88H136.5V55.9ZM146.933 58V47.78H148.833L149.333 48.86C149.866 48.14 150.54 47.78 151.353 47.78H152.133V50.46H149.593V58H146.933ZM156.88 58V47.78H159.52V58H156.88ZM156.88 44H159.52V46.7H156.88V44ZM165.836 47.78H170.256V49.88H167.136L169.036 52.7C169.889 53.9133 170.362 54.7467 170.456 55.2C170.509 55.4133 170.536 55.6333 170.536 55.86C170.536 56.8067 170.182 57.52 169.476 58H164.376V55.9H168.036L165.896 52.76C165.802 52.6133 165.656 52.4067 165.456 52.14C165.269 51.8733 165.122 51.66 165.016 51.5C164.909 51.3267 164.836 51.2 164.796 51.12C164.756 51.04 164.702 50.94 164.636 50.82C164.569 50.6867 164.522 50.5733 164.496 50.48C164.442 50.2267 164.416 50.02 164.416 49.86C164.416 48.8867 164.889 48.1933 165.836 47.78ZM179.853 49.88H178.353C178.153 50.12 177.986 50.4533 177.853 50.88C177.733 51.3067 177.673 51.72 177.673 52.12H180.533C180.559 51.72 180.506 51.3067 180.373 50.88C180.239 50.44 180.066 50.1067 179.853 49.88ZM182.573 55.9V58H177.493C176.559 57.3733 175.899 56.6 175.513 55.68C175.139 54.7467 174.953 53.8067 174.953 52.86C174.953 50.6733 175.779 48.98 177.433 47.78H180.673C181.566 48.4333 182.173 49.1267 182.493 49.86C182.813 50.5933 182.973 51.3333 182.973 52.08C182.973 52.8267 182.913 53.4667 182.793 54H177.813C177.853 54.3067 177.966 54.66 178.153 55.06C178.353 55.4467 178.566 55.7267 178.793 55.9H182.573ZM188.602 47.78H193.022V49.88H189.902L191.802 52.7C192.656 53.9133 193.129 54.7467 193.222 55.2C193.276 55.4133 193.302 55.6333 193.302 55.86C193.302 56.8067 192.949 57.52 192.242 58H187.142V55.9H190.802L188.662 52.76C188.569 52.6133 188.422 52.4067 188.222 52.14C188.036 51.8733 187.889 51.66 187.782 51.5C187.676 51.3267 187.602 51.2 187.562 51.12C187.522 51.04 187.469 50.94 187.402 50.82C187.336 50.6867 187.289 50.5733 187.262 50.48C187.209 50.2267 187.182 50.02 187.182 49.86C187.182 48.8867 187.656 48.1933 188.602 47.78Z" fill="#FFAA17"/>
</g>
<defs>
<clipPath id="clip0_1_25">
<rect width="197" height="68" fill="white"/>
</clipPath>
</defs>
</svg>
