<svg width="197" height="68" viewBox="0 0 197 68" fill="none" xmlns="http://www.w3.org/2000/svg">
<g clip-path="url(#clip0_2_19)">
<path d="M14 2H54C59.5 2 64 6.5 64 12V52C64 57.5 59.5 62 54 62H14C8.5 62 4 57.5 4 52V12C4 6.5 8.5 2 14 2Z" fill="#FFAA17"/>
<path d="M89.616 14.012L81.084 30.824H89.652V35H75.864V30.896L84.36 14.12H75.864V9.8H89.616V14.012ZM110.627 35V9.8H123.551V14.12H115.559V20.132H122.687V24.308H115.559V30.824H123.695V35H110.627ZM144.843 35V9.8H155.103C156.279 10.232 157.323 10.988 158.235 12.068C159.147 13.148 159.603 14.456 159.603 15.992C159.603 18.704 158.715 20.6 156.939 21.68V21.824C159.147 23.048 160.251 24.968 160.251 27.584C160.251 30.584 158.727 33.056 155.679 35H144.843ZM149.739 20.204H153.303C154.359 19.556 154.887 18.572 154.887 17.252C154.887 15.932 154.395 14.888 153.411 14.12H149.739V20.204ZM149.739 30.824H153.447C153.879 30.512 154.263 30.02 154.599 29.348C154.959 28.676 155.139 28.004 155.139 27.332C155.139 26.66 154.995 26.048 154.707 25.496C154.419 24.944 154.059 24.536 153.627 24.272H149.739V30.824ZM191.966 35L191.21 31.004H185.522L184.766 35H179.87L184.73 9.8H192.182L196.79 35H191.966ZM188.294 14.48L186.89 22.868L186.098 27.152H190.598L189.77 22.868L188.366 14.48H188.294Z" fill="black"/>
<path d="M80.48 49.88H78.98C78.78 50.12 78.6133 50.4533 78.48 50.88C78.36 51.3067 78.3 51.72 78.3 52.12H81.16C81.1867 51.72 81.1333 51.3067 81 50.88C80.8667 50.44 80.6933 50.1067 80.48 49.88ZM83.2 55.9V58H78.12C77.1867 57.3733 76.5267 56.6 76.14 55.68C75.7667 54.7467 75.58 53.8067 75.58 52.86C75.58 50.6733 76.4067 48.98 78.06 47.78H81.3C82.1933 48.4333 82.8 49.1267 83.12 49.86C83.44 50.5933 83.6 51.3333 83.6 52.08C83.6 52.8267 83.54 53.4667 83.42 54H78.44C78.48 54.3067 78.5933 54.66 78.78 55.06C78.98 55.4467 79.1933 55.7267 79.42 55.9H83.2ZM92.982 47.78H95.102C95.6887 48.5267 96.0887 49.2733 96.302 50.02C96.5154 50.7667 96.622 51.7 96.622 52.82V58H93.962V52.62C93.962 51.3533 93.7887 50.44 93.442 49.88H91.202V58H88.542V47.78H90.622L90.982 48.5C91.2754 48.2333 91.5487 48.0467 91.802 47.94C92.0687 47.8333 92.462 47.78 92.982 47.78ZM102.156 53.54V49.88H100.776V47.78H102.156V45H104.816V47.78H106.456V49.88H104.816V54.18C104.816 54.9933 104.956 55.5667 105.236 55.9H106.456V58H103.616C102.909 57.3467 102.483 56.64 102.336 55.88C102.216 55.24 102.156 54.46 102.156 53.54ZM115.811 49.88H114.311C114.111 50.12 113.945 50.4533 113.811 50.88C113.691 51.3067 113.631 51.72 113.631 52.12H116.491C116.518 51.72 116.465 51.3067 116.331 50.88C116.198 50.44 116.025 50.1067 115.811 49.88ZM118.531 55.9V58H113.451C112.518 57.3733 111.858 56.6 111.471 55.68C111.098 54.7467 110.911 53.8067 110.911 52.86C110.911 50.6733 111.738 48.98 113.391 47.78H116.631C117.525 48.4333 118.131 49.1267 118.451 49.86C118.771 50.5933 118.931 51.3333 118.931 52.08C118.931 52.8267 118.871 53.4667 118.751 54H113.771C113.811 54.3067 113.925 54.66 114.111 55.06C114.311 55.4467 114.525 55.7267 114.751 55.9H118.531ZM123.893 58V47.78H125.793L126.293 48.86C126.827 48.14 127.5 47.78 128.313 47.78H129.093V50.46H126.553V58H123.893ZM133.84 47.78H135.98L136.28 48.5C136.574 48.2333 136.847 48.0467 137.1 47.94C137.367 47.8333 137.76 47.78 138.28 47.78H140.08C140.64 48.3267 141.08 49.0333 141.4 49.9C141.72 50.7667 141.88 51.72 141.88 52.76C141.88 54.9867 141.214 56.7333 139.88 58H138.18C137.474 58 136.914 57.8133 136.5 57.44V61H133.84V47.78ZM136.5 55.9H138.42C138.914 55.06 139.16 54.04 139.16 52.84C139.16 51.64 138.907 50.6533 138.4 49.88H136.5V55.9ZM146.933 58V47.78H148.833L149.333 48.86C149.866 48.14 150.54 47.78 151.353 47.78H152.133V50.46H149.593V58H146.933ZM156.88 58V47.78H159.52V58H156.88ZM156.88 44H159.52V46.7H156.88V44ZM165.836 47.78H170.256V49.88H167.136L169.036 52.7C169.889 53.9133 170.362 54.7467 170.456 55.2C170.509 55.4133 170.536 55.6333 170.536 55.86C170.536 56.8067 170.182 57.52 169.476 58H164.376V55.9H168.036L165.896 52.76C165.802 52.6133 165.656 52.4067 165.456 52.14C165.269 51.8733 165.122 51.66 165.016 51.5C164.909 51.3267 164.836 51.2 164.796 51.12C164.756 51.04 164.702 50.94 164.636 50.82C164.569 50.6867 164.522 50.5733 164.496 50.48C164.442 50.2267 164.416 50.02 164.416 49.86C164.416 48.8867 164.889 48.1933 165.836 47.78ZM179.853 49.88H178.353C178.153 50.12 177.986 50.4533 177.853 50.88C177.733 51.3067 177.673 51.72 177.673 52.12H180.533C180.559 51.72 180.506 51.3067 180.373 50.88C180.239 50.44 180.066 50.1067 179.853 49.88ZM182.573 55.9V58H177.493C176.559 57.3733 175.899 56.6 175.513 55.68C175.139 54.7467 174.953 53.8067 174.953 52.86C174.953 50.6733 175.779 48.98 177.433 47.78H180.673C181.566 48.4333 182.173 49.1267 182.493 49.86C182.813 50.5933 182.973 51.3333 182.973 52.08C182.973 52.8267 182.913 53.4667 182.793 54H177.813C177.853 54.3067 177.966 54.66 178.153 55.06C178.353 55.4467 178.566 55.7267 178.793 55.9H182.573ZM188.602 47.78H193.022V49.88H189.902L191.802 52.7C192.656 53.9133 193.129 54.7467 193.222 55.2C193.276 55.4133 193.302 55.6333 193.302 55.86C193.302 56.8067 192.949 57.52 192.242 58H187.142V55.9H190.802L188.662 52.76C188.569 52.6133 188.422 52.4067 188.222 52.14C188.036 51.8733 187.889 51.66 187.782 51.5C187.676 51.3267 187.602 51.2 187.562 51.12C187.522 51.04 187.469 50.94 187.402 50.82C187.336 50.6867 187.289 50.5733 187.262 50.48C187.209 50.2267 187.182 50.02 187.182 49.86C187.182 48.8867 187.656 48.1933 188.602 47.78Z" fill="#FFAA17"/>
<path d="M45.01 22.005L32.465 43.39H44.88V50.215H22V45.21L34.74 23.825H22.78V17H45.01V22.005Z" fill="white"/>
</g>
<defs>
<clipPath id="clip0_2_19">
<rect width="197" height="68" fill="white"/>
</clipPath>
</defs>
</svg>
